<?xml version="1.0" encoding="UTF-8"?>
<svg id="Layer_2" data-name="Layer 2" xmlns="http://www.w3.org/2000/svg" viewBox="0 0 487.7 127.51">
  <defs>
    <style>
      .cls-1 {
        fill: #010101;
      }

      .cls-2 {
        fill: #231f20;
      }
    </style>
  </defs>
  <g id="Layer_1-2" data-name="Layer 1">
    <g>
      <g>
        <path d="M130.92,9.76V.21h-3.92v12.67h10.03v-3.12h-6.11Z"/>
        <path d="M149.43,1.7C148.28.56,146.66,0,144.55,0s-3.66.57-4.81,1.73c-1.15,1.15-1.73,2.76-1.73,4.83,0,1.48.29,2.71.87,3.69.59.99,1.34,1.71,2.28,2.16.94.46,2.12.69,3.55.69s2.58-.27,3.52-.79c.94-.53,1.66-1.27,2.16-2.22.5-.94.75-2.16.75-3.64,0-2.04-.57-3.62-1.71-4.75ZM146.53,9.35c-.46.54-1.11.82-1.95.82s-1.47-.28-1.94-.84c-.48-.56-.71-1.48-.71-2.76s.23-2.21.71-2.77,1.11-.84,1.9-.84c.83,0,1.48.28,1.96.83.48.55.72,1.42.72,2.61,0,1.42-.23,2.4-.69,2.95Z"/>
        <path d="M159.61,5.66v2.63h2.62v1.2c-.51.3-.97.52-1.36.64-.4.13-.82.19-1.26.19-.92,0-1.64-.29-2.15-.88-.52-.59-.78-1.56-.78-2.94,0-1.29.26-2.23.77-2.83.51-.59,1.19-.89,2.05-.89.58,0,1.05.13,1.42.38.37.25.64.62.79,1.1l3.78-.68c-.23-.81-.58-1.49-1.03-2.02-.46-.54-1.04-.93-1.73-1.18-.7-.26-1.74-.38-3.14-.38s-2.61.2-3.47.61c-1.1.53-1.93,1.31-2.5,2.33-.57,1.02-.86,2.22-.86,3.61,0,1.31.26,2.47.78,3.49.52,1.01,1.26,1.78,2.21,2.29.94.51,2.17.77,3.67.77,1.22,0,2.28-.15,3.17-.43.89-.29,1.91-.82,3.07-1.61v-5.4h-6.05Z"/>
        <path d="M168.14.21v12.67h3.92V.21h-3.92Z"/>
        <path d="M185.18,6.88c-.34-.55-.88-1.02-1.62-1.4-.74-.38-1.97-.75-3.68-1.12-.69-.14-1.13-.3-1.31-.47-.19-.16-.28-.34-.28-.54,0-.28.11-.51.34-.7.23-.2.57-.29,1.03-.29.55,0,.99.13,1.3.39.31.25.52.67.62,1.24l3.69-.22c-.16-1.31-.67-2.27-1.52-2.87-.85-.6-2.08-.9-3.7-.9-1.32,0-2.36.16-3.12.49-.75.34-1.32.79-1.7,1.37-.38.58-.57,1.19-.57,1.84,0,1,.37,1.81,1.11,2.45.73.64,1.96,1.15,3.67,1.54,1.05.23,1.72.47,2.01.73s.43.56.43.88c0,.35-.15.65-.45.92-.31.26-.74.39-1.3.39-.74,0-1.32-.26-1.72-.77-.25-.32-.42-.78-.5-1.38l-3.72.23c.11,1.28.58,2.33,1.41,3.16.83.83,2.32,1.25,4.47,1.25,1.23,0,2.25-.18,3.05-.53.81-.36,1.44-.88,1.89-1.56.45-.69.67-1.44.67-2.25,0-.69-.17-1.32-.5-1.88Z"/>
        <path d="M186.76.21v3.13h3.99v9.54h3.92V3.34h3.99V.21h-11.9Z"/>
        <path d="M200.59.21v12.67h3.92V.21h-3.92Z"/>
        <path d="M211.23,10.01v-2.49h6.09v-2.59h-6.09v-2.01h6.57V.21h-10.49v12.67h10.68v-2.87h-6.76Z"/>
        <path d="M228.7,5l4.63-4.79h-5.21l-4.1,4.79V.21h-3.92v12.67h3.92v-3.09l2.02-2.12,2.67,5.21h4.82l-4.83-7.88Z"/>
        <path d="M239.85.21v3.13h3.99v9.54h3.92V3.34h3.99V.21h-11.9Z"/>
        <path d="M266.01,12.86l-1.88-3.65c-.1-.18-.28-.45-.55-.79-.28-.34-.48-.56-.63-.66-.21-.16-.55-.31-1.02-.47.58-.13,1.04-.3,1.38-.5.52-.32.93-.73,1.23-1.24.3-.51.45-1.12.45-1.82,0-.81-.19-1.49-.58-2.05-.4-.56-.91-.95-1.55-1.16-.64-.2-1.56-.31-2.77-.31h-6.53v12.67h3.93v-5.14h.35c.36,0,.68.1.96.29.21.15.44.48.71.98l2.09,3.87h4.42v-.02ZM260.83,4.78c-.17.21-.38.34-.64.39-.51.12-.86.18-1.04.18h-1.65v-2.58h1.72c.72,0,1.2.11,1.46.33.26.22.39.53.39.94,0,.28-.08.52-.24.74Z"/>
        <path d="M275.03.21h-4.26l-4.76,12.65v.02s3.99,0,3.99,0l.62-2.09h4.44l.64,2.09h4.09l-4.76-12.67ZM271.48,8.05l1.38-4.55,1.4,4.55h-2.78Z"/>
        <path d="M289.49.21v7.01l-4.77-7.01h-3.66v12.67h3.69v-6.95l4.74,6.95h3.69V.21h-3.69Z"/>
        <path d="M306.09,6.88c-.33-.55-.87-1.02-1.61-1.4-.74-.38-1.97-.75-3.68-1.12-.69-.14-1.13-.3-1.31-.47-.19-.16-.29-.34-.29-.54,0-.28.12-.51.35-.7.23-.2.57-.29,1.03-.29.55,0,.98.13,1.3.39.31.25.52.67.62,1.24l3.68-.22c-.16-1.31-.66-2.27-1.51-2.87-.85-.6-2.09-.9-3.7-.9-1.32,0-2.36.16-3.12.49-.76.34-1.32.79-1.7,1.37-.38.58-.57,1.19-.57,1.84,0,1,.37,1.81,1.11,2.45.73.64,1.95,1.15,3.67,1.54,1.05.23,1.72.47,2.01.73.28.26.43.56.43.88,0,.35-.15.65-.46.92-.3.26-.73.39-1.29.39-.75,0-1.32-.26-1.73-.77-.24-.32-.41-.78-.49-1.38l-3.72.23c.11,1.28.58,2.33,1.41,3.16.83.83,2.32,1.25,4.47,1.25,1.23,0,2.25-.18,3.05-.53.81-.36,1.44-.88,1.89-1.56.44-.69.67-1.44.67-2.25,0-.69-.17-1.32-.51-1.88Z"/>
        <path d="M318.24,1.22c-.7-.67-1.76-1.01-3.18-1.01h-6.51v12.67h3.93v-4.7h2.15c1.58,0,2.75-.36,3.52-1.08s1.15-1.72,1.15-3-.35-2.2-1.06-2.88ZM315.03,5.22c-.3.26-.83.39-1.59.39h-.96v-2.82h1.12c.73,0,1.23.14,1.49.41.27.28.4.62.4,1.01,0,.41-.15.75-.46,1.01Z"/>
        <path d="M332.26,1.7c-1.14-1.14-2.76-1.7-4.87-1.7s-3.66.57-4.82,1.73-1.72,2.76-1.72,4.83c0,1.48.29,2.71.87,3.69.58.99,1.34,1.71,2.28,2.16.93.46,2.11.69,3.54.69s2.58-.27,3.52-.79c.95-.53,1.67-1.27,2.16-2.22.5-.94.75-2.16.75-3.64,0-2.04-.57-3.62-1.71-4.75ZM329.38,9.35c-.46.54-1.12.82-1.96.82s-1.46-.28-1.94-.84c-.47-.56-.71-1.48-.71-2.76s.24-2.21.72-2.77,1.11-.84,1.9-.84,1.48.28,1.96.83.72,1.42.72,2.61c0,1.42-.23,2.4-.69,2.95Z"/>
        <path d="M346.7,9.21c-.1-.18-.28-.45-.55-.79-.28-.34-.48-.56-.63-.66-.21-.16-.55-.31-1.02-.47.59-.13,1.04-.3,1.38-.5.52-.32.93-.73,1.23-1.24.3-.51.45-1.12.45-1.82,0-.81-.19-1.49-.58-2.05-.4-.56-.91-.95-1.55-1.16-.64-.2-1.56-.31-2.77-.31h-6.53v12.67h3.93v-5.14h.35c.36,0,.68.1.96.29.21.15.44.48.71.98l2.09,3.87h4.42l-1.89-3.67ZM343.4,4.78c-.17.21-.38.34-.64.39-.51.12-.86.18-1.04.18h-1.65v-2.58h1.72c.72,0,1.2.11,1.46.33.26.22.39.53.39.94,0,.28-.08.52-.24.74Z"/>
        <path d="M348.81.21v3.13h3.99v9.54h3.92V3.34h3.99V.21h-11.9Z"/>
      </g>
      <g>
        <path d="M150.44,105.15c-.34-.56-.88-1.03-1.62-1.4-.74-.38-1.97-.75-3.68-1.12-.69-.15-1.13-.3-1.31-.47-.19-.16-.28-.34-.28-.54,0-.28.11-.52.34-.71s.57-.29,1.03-.29c.55,0,.99.13,1.3.39s.52.67.62,1.25l3.69-.22c-.16-1.31-.67-2.27-1.52-2.87-.85-.61-2.08-.91-3.7-.91-1.32,0-2.36.17-3.12.5-.75.33-1.32.79-1.7,1.37-.38.57-.57,1.19-.57,1.84,0,.99.37,1.81,1.11,2.45.73.63,1.96,1.15,3.67,1.53,1.05.23,1.72.48,2.01.74.29.26.43.55.43.88,0,.35-.15.65-.45.91-.31.26-.74.39-1.3.39-.74,0-1.32-.25-1.72-.76-.25-.32-.42-.78-.5-1.39l-3.72.24c.11,1.27.58,2.33,1.41,3.16.83.83,2.32,1.24,4.47,1.24,1.23,0,2.25-.17,3.05-.53.81-.35,1.44-.87,1.89-1.56.45-.68.67-1.43.67-2.25,0-.69-.17-1.31-.5-1.87Z"/>
        <path d="M156.83,108.28v-2.5h6.09v-2.58h-6.09v-2.02h6.56v-2.7h-10.49v12.67h10.68v-2.87h-6.75Z"/>
        <path d="M176.31,107.48c-.09-.19-.28-.45-.55-.79-.27-.34-.48-.56-.63-.67-.21-.15-.55-.31-1.02-.46.59-.14,1.04-.3,1.38-.51.52-.31.94-.73,1.24-1.23.3-.51.44-1.12.44-1.82,0-.81-.19-1.49-.58-2.06-.39-.56-.91-.94-1.55-1.15-.64-.21-1.56-.31-2.77-.31h-6.53v12.67h3.93v-5.14h.35c.36,0,.68.09.96.29.21.15.44.47.71.98l2.09,3.87h4.42l-1.89-3.67ZM172.99,103.04c-.17.21-.38.35-.64.4-.51.11-.86.17-1.03.17h-1.66v-2.57h1.72c.72,0,1.21.11,1.46.33.26.21.39.53.39.94,0,.27-.08.52-.24.73Z"/>
        <path d="M187.67,98.48l-2.82,9.12-2.85-9.12h-4.09l4.78,12.67h4.25l4.7-12.67h-3.97Z"/>
        <path d="M193.07,98.48v12.67h3.93v-12.67h-3.93Z"/>
        <path d="M208.24,105.96c-.17.8-.45,1.41-.84,1.83-.38.42-.94.63-1.69.63s-1.37-.26-1.8-.78c-.43-.52-.64-1.48-.64-2.88,0-1.14.18-1.97.54-2.5.47-.71,1.15-1.07,2.03-1.07.4,0,.75.08,1.07.24.31.17.58.4.8.7.13.17.26.46.38.84l3.46-.77c-.45-1.33-1.12-2.32-2.04-2.97-.91-.64-2.16-.97-3.76-.97-2.04,0-3.62.57-4.73,1.69-1.12,1.13-1.67,2.74-1.67,4.83,0,1.57.31,2.86.95,3.87.63,1.01,1.38,1.71,2.26,2.11.87.4,1.99.6,3.37.6,1.14,0,2.07-.16,2.81-.49.73-.33,1.34-.82,1.84-1.46.5-.65.86-1.45,1.09-2.41l-3.43-1.04Z"/>
        <path d="M217.48,108.28v-2.5h6.1v-2.58h-6.1v-2.02h6.57v-2.7h-10.49v12.67h10.68v-2.87h-6.76Z"/>
        <path d="M241.68,101.76c-.12-.49-.28-.93-.48-1.3-.2-.37-.47-.72-.82-1.06-.34-.34-.79-.61-1.34-.82-.54-.21-1.24-.32-2.1-.32-1.77,0-3.09.48-3.96,1.45-.87.96-1.3,2.64-1.3,5.05,0,.98.09,1.87.26,2.68.17.81.4,1.45.71,1.92.42.65.96,1.15,1.61,1.49.66.34,1.52.51,2.59.51,1.9,0,3.24-.53,4.02-1.6.77-1.06,1.16-2.74,1.16-5.04,0-1.03-.12-2.01-.35-2.96ZM238.35,107.4c-.13.54-.32.93-.58,1.18-.26.26-.57.38-.93.38-.54,0-.96-.29-1.24-.89-.29-.59-.43-1.69-.43-3.3s.13-2.69.39-3.28c.26-.59.68-.88,1.26-.88s1,.28,1.28.86c.29.58.43,1.71.43,3.39,0,1.15-.06,2-.18,2.54Z"/>
        <path d="M252.76,103.91c-.78-.81-1.74-1.21-2.87-1.21-.58,0-1.09.1-1.53.3-.45.21-.88.52-1.3.95.11-1.36.28-2.25.51-2.66.32-.58.76-.87,1.33-.87.32,0,.58.1.8.31.22.2.37.54.46,1.03l3.5-.43c-.2-.68-.49-1.24-.88-1.69-.39-.45-.87-.79-1.46-1.03-.58-.23-1.38-.35-2.39-.35-1.7,0-3.03.53-4,1.6-.96,1.06-1.44,2.74-1.44,5.02,0,1.56.23,2.82.69,3.77.46.94,1.07,1.63,1.83,2.06.77.44,1.79.65,3.05.65,1.06,0,1.94-.17,2.64-.53.7-.35,1.24-.88,1.64-1.57.39-.69.59-1.45.59-2.29,0-1.24-.39-2.26-1.17-3.06ZM250.14,108.64c-.31.35-.7.53-1.16.53-.5,0-.93-.2-1.27-.59-.35-.38-.52-.92-.52-1.61s.17-1.19.5-1.55c.33-.37.74-.55,1.23-.55s.88.19,1.2.56c.32.38.48.92.48,1.64s-.15,1.22-.46,1.57Z"/>
        <path d="M265.3,105.61c-.24-.42-.56-.76-.98-1.02-.26-.16-.64-.3-1.13-.43.61-.33,1.06-.72,1.36-1.16.3-.45.45-.94.45-1.49,0-.93-.37-1.71-1.11-2.32-.73-.62-1.93-.93-3.58-.93-1.44,0-2.56.29-3.34.85-.79.56-1.32,1.38-1.6,2.44l3.33.59c.09-.62.27-1.06.53-1.31.26-.26.59-.38,1.01-.38s.72.11.95.35c.23.23.34.53.34.92s-.15.75-.46,1.05c-.31.29-.69.44-1.15.44-.11,0-.26-.02-.46-.05l-.18,2.52c.48-.14.86-.21,1.14-.21.52,0,.93.16,1.23.48.3.33.45.78.45,1.37s-.15,1.04-.47,1.38c-.31.35-.7.52-1.18.52-.45,0-.82-.14-1.11-.41-.29-.27-.5-.77-.64-1.47l-3.52.46c.23.79.56,1.45.99,1.97.43.52.98.92,1.64,1.19.67.27,1.58.4,2.73.4s2.13-.18,2.86-.55c.73-.36,1.28-.88,1.67-1.56.38-.68.58-1.38.58-2.12,0-.59-.12-1.09-.35-1.52Z"/>
        <path d="M277.09,101.76c-.12-.49-.28-.93-.48-1.3-.2-.37-.47-.72-.82-1.06-.34-.34-.79-.61-1.34-.82-.55-.21-1.25-.32-2.1-.32-1.77,0-3.09.48-3.96,1.45-.87.96-1.3,2.64-1.3,5.05,0,.98.08,1.87.26,2.68.16.81.4,1.45.71,1.92.42.65.96,1.15,1.61,1.49.66.34,1.52.51,2.59.51,1.9,0,3.24-.53,4.02-1.6.77-1.06,1.16-2.74,1.16-5.04,0-1.03-.12-2.01-.35-2.96ZM273.76,107.4c-.13.54-.32.93-.58,1.18-.26.26-.57.38-.93.38-.54,0-.96-.29-1.24-.89-.29-.59-.43-1.69-.43-3.3s.13-2.69.39-3.28c.26-.59.68-.88,1.26-.88s1,.28,1.28.86c.29.58.43,1.71.43,3.39,0,1.15-.06,2-.18,2.54Z"/>
        <path d="M288.18,103.91c-.78-.81-1.74-1.21-2.87-1.21-.58,0-1.09.1-1.53.3-.45.21-.88.52-1.3.95.11-1.36.28-2.25.51-2.66.32-.58.76-.87,1.33-.87.32,0,.58.1.8.31.21.2.37.54.46,1.03l3.5-.43c-.2-.68-.49-1.24-.88-1.69s-.87-.79-1.46-1.03c-.58-.23-1.38-.35-2.39-.35-1.7,0-3.03.53-4,1.6-.96,1.06-1.44,2.74-1.44,5.02,0,1.56.23,2.82.69,3.77.46.94,1.07,1.63,1.83,2.06.77.44,1.79.65,3.05.65,1.06,0,1.93-.17,2.63-.53.7-.35,1.25-.88,1.65-1.57.39-.69.59-1.45.59-2.29,0-1.24-.39-2.26-1.17-3.06ZM285.55,108.64c-.31.35-.7.53-1.16.53-.5,0-.93-.2-1.27-.59-.35-.38-.52-.92-.52-1.61s.17-1.19.5-1.55c.33-.37.74-.55,1.23-.55s.88.19,1.2.56c.32.38.48.92.48,1.64s-.15,1.22-.46,1.57Z"/>
        <path d="M300.69,101.76c-.12-.49-.28-.93-.48-1.3-.19-.37-.47-.72-.81-1.06-.35-.34-.79-.61-1.34-.82-.55-.21-1.25-.32-2.1-.32-1.78,0-3.1.48-3.96,1.45-.87.96-1.3,2.64-1.3,5.05,0,.98.08,1.87.25,2.68.17.81.41,1.45.71,1.92.42.65.96,1.15,1.62,1.49.66.34,1.52.51,2.58.51,1.9,0,3.24-.53,4.02-1.6.78-1.06,1.17-2.74,1.17-5.04,0-1.03-.12-2.01-.36-2.96ZM297.36,107.4c-.12.54-.31.93-.58,1.18-.26.26-.57.38-.93.38-.54,0-.95-.29-1.23-.89-.29-.59-.43-1.69-.43-3.3s.13-2.69.39-3.28c.26-.59.68-.88,1.26-.88s1,.28,1.28.86c.29.58.43,1.71.43,3.39,0,1.15-.06,2-.19,2.54Z"/>
        <path d="M312.49,101.76c-.12-.49-.28-.93-.48-1.3-.2-.37-.47-.72-.82-1.06-.34-.34-.79-.61-1.34-.82-.55-.21-1.25-.32-2.1-.32-1.77,0-3.09.48-3.96,1.45-.87.96-1.3,2.64-1.3,5.05,0,.98.08,1.87.25,2.68.17.81.41,1.45.72,1.92.42.65.96,1.15,1.61,1.49.66.34,1.52.51,2.59.51,1.9,0,3.24-.53,4.01-1.6.78-1.06,1.17-2.74,1.17-5.04,0-1.03-.12-2.01-.35-2.96ZM309.17,107.4c-.13.54-.32.93-.58,1.18-.27.26-.57.38-.93.38-.54,0-.96-.29-1.24-.89-.29-.59-.43-1.69-.43-3.3s.13-2.69.39-3.28c.26-.59.68-.88,1.26-.88s1,.28,1.28.86c.29.58.43,1.71.43,3.39,0,1.15-.06,2-.18,2.54Z"/>
        <path d="M324.31,105.61c-.23-.42-.56-.76-.98-1.02-.26-.16-.63-.3-1.12-.43.6-.33,1.06-.72,1.36-1.16.3-.45.44-.94.44-1.49,0-.93-.36-1.71-1.1-2.32-.74-.62-1.93-.93-3.59-.93-1.44,0-2.55.29-3.34.85-.78.56-1.31,1.38-1.59,2.44l3.33.59c.09-.62.26-1.06.52-1.31.26-.26.6-.38,1.01-.38s.72.11.95.35c.23.23.35.53.35.92s-.15.75-.46,1.05c-.31.29-.69.44-1.16.44-.11,0-.26-.02-.45-.05l-.19,2.52c.49-.14.87-.21,1.15-.21.51,0,.92.16,1.23.48.3.33.45.78.45,1.37s-.16,1.04-.47,1.38c-.31.35-.71.52-1.18.52s-.82-.14-1.11-.41c-.29-.27-.51-.77-.64-1.47l-3.52.46c.23.79.56,1.45.99,1.97.43.52.97.92,1.64,1.19s1.57.4,2.73.4,2.13-.18,2.86-.55c.72-.36,1.28-.88,1.66-1.56.39-.68.58-1.38.58-2.12,0-.59-.11-1.09-.35-1.52Z"/>
        <path d="M336.1,101.76c-.12-.49-.28-.93-.48-1.3-.2-.37-.47-.72-.81-1.06-.35-.34-.79-.61-1.34-.82-.55-.21-1.25-.32-2.1-.32-1.78,0-3.1.48-3.96,1.45-.87.96-1.3,2.64-1.3,5.05,0,.98.08,1.87.25,2.68.17.81.41,1.45.71,1.92.42.65.96,1.15,1.62,1.49.66.34,1.52.51,2.58.51,1.9,0,3.24-.53,4.02-1.6.78-1.06,1.17-2.74,1.17-5.04,0-1.03-.12-2.01-.36-2.96ZM332.76,107.4c-.12.54-.31.93-.58,1.18-.26.26-.57.38-.93.38-.54,0-.95-.29-1.24-.89-.28-.59-.42-1.69-.42-3.3s.13-2.69.39-3.28c.25-.59.68-.88,1.26-.88s1,.28,1.28.86c.29.58.43,1.71.43,3.39,0,1.15-.06,2-.19,2.54Z"/>
        <path d="M347.91,101.76c-.12-.49-.28-.93-.48-1.3-.2-.37-.47-.72-.82-1.06-.35-.34-.79-.61-1.34-.82-.55-.21-1.25-.32-2.1-.32-1.77,0-3.09.48-3.96,1.45-.87.96-1.3,2.64-1.3,5.05,0,.98.08,1.87.25,2.68.17.81.41,1.45.72,1.92.42.65.96,1.15,1.61,1.49.66.34,1.52.51,2.59.51,1.9,0,3.24-.53,4.01-1.6.78-1.06,1.17-2.74,1.17-5.04,0-1.03-.12-2.01-.35-2.96ZM344.58,107.4c-.13.54-.32.93-.58,1.18-.27.26-.58.38-.93.38-.54,0-.96-.29-1.24-.89-.29-.59-.43-1.69-.43-3.3s.13-2.69.39-3.28c.26-.59.68-.88,1.26-.88s1,.28,1.28.86c.29.58.43,1.71.43,3.39,0,1.15-.06,2-.18,2.54Z"/>
      </g>
      <g>
        <path class="cls-1" d="M419.01,29.46h-18.66l-1.22,4.05-2.95-3.93h-18.2l-8.75,31.47-.3-24.93-4.82-6.55h-21.08c-.1.01-.16.06-.23.12-.24.21-.82,1.61-1.12,2.01-.07.1-.11.23-.27.19-.38-.35-1.5-2.24-1.86-2.31h-18.87l-5.87,10.88c.12-1.5.19-3.01.05-4.51l-4.77-6.37h-38.7l-.23.12c-1.36,1.62-2.74,3.24-4.23,4.74l-3.47-4.69-.3-.17h-38.58s-1.11,3.75-1.11,3.75c-.43.28-.31-.12-.47-.33-.85-1.19-1.89-2.18-2.63-3.42h-18.17s-9.75,35.06-9.75,35.06c-.13-1.98-.02-3.98-.05-5.96-.11-7.54-.19-15.14-.37-22.66-1.45-1.72-2.71-3.59-4.15-5.31-.3-.35-.67-.59-.89-1.11l-20.96-.02-.3.17-24.74,43.91c-.22,0-1.65-3.1-1.88-3.55-.08-.14-.23-.15-.3-.3-.18-.35-1.48-2.97-1.36-3.09,6.09-1.29,9.88-6.01,11.79-11.66,1.32-3.89,2.96-9.49,1.48-13.44-.66-1.79-5.2-7.43-6.66-8.97-1.92-2.01-4.68-2.68-7.36-2.96l-28.35.06c-.2.64-.36-.03-.62-.06h-34.54l-13.17,47.1v.11c.26.03.53.45.69.64,1.59,1.89,3.07,3.87,4.72,5.71h18.69s4.3-15.83,4.3-15.83h9.39c-.61,3.16-1.8,6.25-2.43,9.42,1.5,2.15,3.33,4.09,4.92,6.2l.35.22h18.6l1.05-4.04c1.17,1.26,2.23,2.64,3.27,4.02l39.77.03c.17-.04,1.32-2.61,1.65-3.01.39-.46.77-.12,1.26-.11.77.01,1.52-.12,2.21-.13.99,0,1.98.1,2.96.07l2.6,3.18h18.61v-1.97c.49.34,1.28,1.87,1.8,1.96h18.41s1.18-3.81,1.18-3.81l2.89,3.7.23.12h38.15c.4-.05.86-.62,1.15-.93,1.2-1.26,2.23-2.71,3.48-3.93l3.59,4.63c.39.36,1.62.25,2.21.23,5.49-.14,10.99.12,16.45-.03.57-.01,1.21-.17,1.8-.09l-7.73-23.2,14.63-16.6.63-.58c.22,7.96.15,15.93.23,23.9.04,3.29.22,6.63.13,9.94l4.94,6.54h21.08c.46-.08,1.12-1.92,1.5-2.31.21,0,1.52,2.21,1.98,2.31h18.87s1.66-3.13,1.66-3.13l6.62.03,2.17,2.98.23.12h18.43s.06-.35.06-.35c.23.12.34.39.63.36l18.39-.06,1.09-3.88c.2-.04.22.16.32.26.84.93,1.73,2.68,2.58,3.45.1.09.18.21.35.22h17.95s13.03-47.06,13.03-47.06l-4.73-6.63ZM82.18,59.67l-4.3,15.85h-15.88l12.19-44.42,31.81-.02-3.44,12.6-15.8.03c-.3.1-.86,2.75-1,3.23h15.88l-3.49,12.71-15.97.02ZM119.44,75.52l-3.88-9.38-2.56,9.38h-15.88l12.2-44.41.61-.15c8.42.31,17.11-.38,25.51,0,11.35.53,10.34,8.02,7.62,16.53-1.98,6.17-5.86,10.99-12.67,11.83l8,16.2h-18.95ZM170.26,75.52v-3.13h-11.25c-.43,1.09-.99,2.17-1.68,3.13h-15.7l24.98-44.55h19.06l.47,44.55h-15.88ZM213.26,75.52l-1.22-18.87-5.33,18.87h-15.82l12.3-44.54,15.93.1,1.15,18.75,5.34-18.86h15.82l-12.29,44.55h-15.88ZM246.89,41.27l3.8,11.6-10.29,11.65,6.49-23.25ZM289.14,31.32l-19.28,21.83.03.38,7.23,21.72c.05.09-.12.27-.15.27h-17.16c-.41,0-2.3-6.98-2.78-7.76l-.81.7-6.26,7.06h-17.33l.75-1.05,18.82-21.25-7.23-21.78-.05-.47h17.5l2.61,7.64.35-.23,6.49-7.41h17.44l-.17.35ZM312.44,75.28l-.34.13-18.45.11c-.67,0-.36-1.34-.39-1.92-.43-7.31-.28-15.18-.36-22.55-.06-6.7-.06-13.39-.11-20.08h15.83s-.47,25.22-.47,25.22l13.45-25.34h15.7l-24.86,44.43ZM347.39,75.4v-3.12h-11.07c-.65.94-1.24,2.05-1.68,3.12h-15.88l24.98-44.55h19.06l.47,44.55h-15.88ZM404.98,75.38l-15.93-.09-1.15-18.75-5.33,18.86h-15.82l12.34-44.55h15.82l1.22,18.86,5.33-18.86h15.82l-12.3,44.53Z"/>
        <path class="cls-1" d="M127.2,46.94h-6.2c.1-1.07.43-2.27.87-3.24h6.2c.13.12-.64,2.9-.87,3.24Z"/>
        <polygon class="cls-1" points="347.97 50.18 347.73 59.55 342.98 59.55 347.97 50.18"/>
        <path class="cls-1" d="M170.85,50.29c-.04,3.03-.1,6.06-.24,9.08,0,.1-.1.29-.17.29h-4.4c-.31-.07.12-.73.23-.92,1.24-2.38,2.47-4.78,3.74-7.14.23-.42.51-.97.84-1.31Z"/>
      </g>
      <g>
        <path class="cls-2" d="M434.54,127.51c-5.15,0-10.12-1.86-13.99-5.24-3.49-3.04-5.89-7.12-6.84-11.6h-59.12v-3.15h59.28l2.51-.03.2,1.36c.62,4.27,2.77,8.19,6.04,11.04,3.3,2.88,7.54,4.46,11.93,4.46s8.74-1.57,12.04-4.41c3.29-2.83,5.4-6.77,5.97-11.07l.18-1.37h24.85c3.18,0,5.88-2.16,6.58-5.24.13-.58.22-1.11.26-1.51.28-3.15.11-6.33-.49-9.44l-2.26-11.65c-.48-2.49-2-6.86-4.39-12.65-1.72-4.15-4.94-7.39-9.08-9.13l-21.54-9.04c-2.91-1.28-5.53-3.06-7.8-5.28-4.83-4.73-14.69-14.19-25.13-24.21l-3.11-2.99c-13.8-13.25-20.2-13.25-24.02-13.25h-20.22V0h20.22c4.29,0,11.48,0,26.19,14.13l3.11,2.99c10.44,10.02,20.31,19.49,25.15,24.23,1.99,1.95,4.3,3.51,6.85,4.64l21.5,9.02c4.91,2.06,8.74,5.91,10.77,10.83,2.51,6.06,4.05,10.52,4.57,13.25l2.26,11.65c.66,3.4.84,6.87.53,10.31-.05.54-.16,1.2-.32,1.93-1.03,4.53-5,7.69-9.65,7.69h-22.14c-.9,4.53-3.29,8.64-6.81,11.67-3.87,3.34-8.88,5.18-14.09,5.18Z"/>
        <path class="cls-2" d="M53.16,127.51c-5.22,0-10.22-1.84-14.09-5.18-3.52-3.04-5.9-7.14-6.81-11.67H10.12c-4.66,0-8.62-3.16-9.65-7.69-.16-.72-.28-1.39-.32-1.93-.3-3.45-.13-6.92.53-10.31l2.26-11.65c.53-2.73,2.07-7.19,4.57-13.25,2.03-4.92,5.86-8.77,10.77-10.83l21.5-9.02c2.55-1.13,4.86-2.69,6.85-4.64,4.84-4.74,14.7-14.2,25.14-24.22l3.12-2.99C89.61,0,96.8,0,101.09,0h20.22v3.15h-20.22c-3.82,0-10.21,0-24.02,13.25l-3.12,2.99c-10.43,10.01-20.29,19.47-25.12,24.2-2.27,2.22-4.89,4-7.8,5.28h-.03s-21.51,9.04-21.51,9.04c-4.14,1.74-7.37,4.98-9.08,9.13-2.39,5.78-3.91,10.16-4.39,12.65l-2.26,11.65c-.6,3.11-.77,6.28-.49,9.44.03.39.13.93.26,1.51.7,3.09,3.41,5.24,6.58,5.24h24.85l.18,1.37c.56,4.3,2.68,8.23,5.97,11.07,3.3,2.85,7.58,4.41,12.04,4.41s8.62-1.59,11.93-4.46c3.27-2.85,5.42-6.77,6.04-11.04l.2-1.36,2.53.03h59.26v3.15h-59.12c-.96,4.48-3.35,8.56-6.84,11.6-3.88,3.38-8.84,5.24-13.99,5.24Z"/>
      </g>
    </g>
  </g>
</svg>